<?xml version="1.0" encoding="UTF-8" standalone="no"?>
<!DOCTYPE svg PUBLIC "-//W3C//DTD SVG 1.1//EN" "http://www.w3.org/Graphics/SVG/1.1/DTD/svg11.dtd">
<!-- Generated by Microsoft Visio, SVG Export push_pull.svg Page-1 -->
<svg xmlns="http://www.w3.org/2000/svg" xmlns:xlink="http://www.w3.org/1999/xlink" xmlns:ev="http://www.w3.org/2001/xml-events"
		xmlns:v="http://schemas.microsoft.com/visio/2003/SVGExtensions/" width="6.32005in" height="5.33579in"
		viewBox="0 0 455.043 384.177" xml:space="preserve" color-interpolation-filters="sRGB" class="st21">
	<v:documentProperties v:langID="1036" v:metric="true" v:viewMarkup="false">
		<v:userDefs>
			<v:ud v:nameU="DisableSpdActionTags" v:prompt="" v:val="VT0(0):26"/>
		</v:userDefs>
	</v:documentProperties>

	<style type="text/css">
	<![CDATA[
		.st1 {fill:#ffffff;stroke:#ed7d31;stroke-width:0.75}
		.st2 {fill:#ed7d31;font-family:Calibri;font-size:1.00001em}
		.st3 {fill:#ffffff;stroke:#4672c4;stroke-width:0.75}
		.st4 {fill:#4672c4;font-family:Calibri;font-size:1.00001em}
		.st5 {fill:#dfa800}
		.st6 {stroke:#bb8c00;stroke-width:0.75}
		.st7 {fill:#feffff;font-family:Calibri;font-size:0.666664em}
		.st8 {fill:#70ad47;stroke:#c8c8c8;stroke-width:0.25}
		.st9 {font-size:1em}
		.st10 {fill:#41719c;stroke:#c8c8c8;stroke-width:0.25}
		.st11 {marker-end:url(#mrkr4-46);stroke:#4672c4;stroke-linecap:round;stroke-linejoin:round;stroke-width:1}
		.st12 {fill:#4672c4;fill-opacity:1;stroke:#4672c4;stroke-opacity:1;stroke-width:0.28409090909091}
		.st13 {fill:#ffffff;stroke:none;stroke-linecap:butt;stroke-width:7.2}
		.st14 {fill:#3c63ac;font-family:Calibri;font-size:0.666664em}
		.st15 {fill:#ffffff;stroke:none;stroke-linecap:butt}
		.st16 {fill:#d39f00;stroke:none;stroke-linecap:butt;stroke-width:0.75}
		.st17 {fill:#4672c4;stroke:#c7c8c8;stroke-width:0.25}
		.st18 {fill:#ffffff}
		.st19 {fill:#4672c4;stroke:#ffffff;stroke-width:0.25}
		.st20 {fill:#41719c;stroke:#c7c8c8;stroke-width:0.25}
		.st21 {fill:none;fill-rule:evenodd;font-size:12px;overflow:visible;stroke-linecap:square;stroke-miterlimit:3}
	]]>
	</style>

	<defs id="Markers">
		<g id="lend4">
			<path d="M 2 1 L 0 0 L 2 -1 L 2 1 " style="stroke:none"/>
		</g>
		<marker id="mrkr4-46" class="st12" v:arrowType="4" v:arrowSize="2" v:setback="7.04" refX="-7.04" orient="auto"
				markerUnits="strokeWidth" overflow="visible">
			<use xlink:href="#lend4" transform="scale(-3.52,-3.52) "/>
		</marker>
	</defs>
	<g v:mID="0" v:index="1" v:groupContext="foregroundPage">
		<title>Page-1</title>
		<v:pageProperties v:drawingScale="0.0393701" v:pageScale="0.0393701" v:drawingUnits="24" v:shadowOffsetX="8.50394"
				v:shadowOffsetY="-8.50394"/>
		<v:layer v:name="Flowchart" v:index="0"/>
		<v:layer v:name="Connector" v:index="1"/>
		<g id="shape111-1" v:mID="111" v:groupContext="shape" transform="translate(0.750009,-298.388)">
			<title>Sheet.111</title>
			<desc>Remote</desc>
			<v:textBlock v:margins="rect(4,4,4,4)" v:tabSpace="42.5197" v:verticalAlign="2"/>
			<v:textRect cx="226.772" cy="341.657" width="453.55" height="85.0394"/>
			<rect x="0" y="299.138" width="453.543" height="85.0394" class="st1"/>
			<text x="4" y="376.58" class="st2" v:langID="1036"><v:paragraph/><v:tabList/>Remote</text>		</g>
		<g id="shape110-4" v:mID="110" v:groupContext="shape" transform="translate(0.75,-0.75)">
			<title>Sheet.110</title>
			<desc>Local</desc>
			<v:textBlock v:margins="rect(4,4,4,4)" v:tabSpace="42.5197" v:verticalAlign="0"/>
			<v:textRect cx="226.772" cy="260.161" width="453.55" height="248.031"/>
			<rect x="0" y="136.146" width="453.543" height="248.031" class="st3"/>
			<text x="14.85" y="150.95" class="st4" v:langID="1036"><v:paragraph/><v:tabList/>Local</text>		</g>
		<g id="shape76-7" v:mID="76" v:groupContext="shape" v:layerMember="0" transform="translate(205.553,-319.648)">
			<title>Database</title>
			<desc>GitHub</desc>
			<v:custProps>
				<v:cp v:nameU="Cost" v:lbl="Cost" v:type="7" v:format="@" v:langID="1033"/>
				<v:cp v:nameU="Duration" v:lbl="Duration" v:type="2" v:langID="1033"/>
				<v:cp v:nameU="Resources" v:lbl="Resources" v:langID="1033"/>
			</v:custProps>
			<v:userDefs>
				<v:ud v:nameU="visVersion" v:val="VT0(15):26"/>
			</v:userDefs>
			<v:textBlock v:margins="rect(2,2,2,2)" v:tabSpace="42.5197"/>
			<v:textRect cx="21.9685" cy="369.508" width="43.94" height="29.3386"/>
			<path d="M0 346.05 L0 379.78 A21.9685 4.3937 -180 1 0 43.94 379.78 L43.94 346.05 A21.9685 4.3937 -180 1 0 0 346.05 Z"
					class="st5"/>
			<path d="M0 346.05 L0 379.78 A21.9685 4.3937 -180 1 0 43.94 379.78 L43.94 346.05 A21.9685 4.3937 -180 1 0 0 346.05"
					class="st6"/>
			<path d="M0 346.05 A21.9685 4.3937 -180 1 0 43.94 346.05" class="st6"/>
			<path d="M0 348.25 A21.9685 4.3937 -180 1 0 43.94 348.25" class="st6"/>
			<path d="M0 350.44 A21.9685 4.3937 -180 0 0 43.94 350.44" class="st6"/>
			<text x="10.49" y="371.91" class="st7" v:langID="1036"><v:paragraph v:horizAlign="1"/><v:tabList/>GitHub</text>		</g>
		<g id="shape77-14" v:mID="77" v:groupContext="shape" v:layerMember="0" transform="translate(319.648,-165.442)">
			<title>Event.77</title>
			<desc>Fichiers Commited</desc>
			<v:custProps>
				<v:cp v:nameU="Cost" v:lbl="Cost" v:type="7" v:format="@" v:langID="1033"/>
				<v:cp v:nameU="Duration" v:lbl="Duration" v:type="2" v:langID="1033"/>
				<v:cp v:nameU="Resources" v:lbl="Resources" v:langID="1033"/>
			</v:custProps>
			<v:userDefs>
				<v:ud v:nameU="scaling" v:val="VT0(1):26"/>
				<v:ud v:nameU="visVersion" v:val="VT0(15):26"/>
			</v:userDefs>
			<v:textBlock v:margins="rect(2,2,2,2)" v:tabSpace="42.5197"/>
			<v:textRect cx="35.4331" cy="362.917" width="70.87" height="42.5197"/>
			<rect x="0" y="341.657" width="70.8661" height="42.5197" rx="18" ry="18" class="st8"/>
			<text x="23.02" y="360.52" class="st7" v:langID="1036"><v:paragraph v:horizAlign="1"/><v:tabList/>Fichiers<v:newlineChar/><tspan
						x="18.45" dy="1.2em" class="st9">Commited</tspan></text>		</g>
		<g id="shape78-18" v:mID="78" v:groupContext="shape" v:layerMember="0" transform="translate(192.089,-165.442)">
			<title>Event.78</title>
			<desc>Fichiers Commited</desc>
			<v:custProps>
				<v:cp v:nameU="Cost" v:lbl="Cost" v:type="7" v:format="@" v:langID="1033"/>
				<v:cp v:nameU="Duration" v:lbl="Duration" v:type="2" v:langID="1033"/>
				<v:cp v:nameU="Resources" v:lbl="Resources" v:langID="1033"/>
			</v:custProps>
			<v:userDefs>
				<v:ud v:nameU="scaling" v:val="VT0(1):26"/>
				<v:ud v:nameU="visVersion" v:val="VT0(15):26"/>
			</v:userDefs>
			<v:textBlock v:margins="rect(2,2,2,2)" v:tabSpace="42.5197"/>
			<v:textRect cx="35.4331" cy="362.917" width="70.87" height="42.5197"/>
			<rect x="0" y="341.657" width="70.8661" height="42.5197" rx="18" ry="18" class="st8"/>
			<text x="23.02" y="360.52" class="st7" v:langID="1036"><v:paragraph v:horizAlign="1"/><v:tabList/>Fichiers<v:newlineChar/><tspan
						x="18.45" dy="1.2em" class="st9">Commited</tspan></text>		</g>
		<g id="shape79-22" v:mID="79" v:groupContext="shape" v:layerMember="0" transform="translate(64.5295,-165.442)">
			<title>Event.79</title>
			<desc>Fichiers Commited</desc>
			<v:custProps>
				<v:cp v:nameU="Cost" v:lbl="Cost" v:type="7" v:format="@" v:langID="1033"/>
				<v:cp v:nameU="Duration" v:lbl="Duration" v:type="2" v:langID="1033"/>
				<v:cp v:nameU="Resources" v:lbl="Resources" v:langID="1033"/>
			</v:custProps>
			<v:userDefs>
				<v:ud v:nameU="scaling" v:val="VT0(1):26"/>
				<v:ud v:nameU="visVersion" v:val="VT0(15):26"/>
			</v:userDefs>
			<v:textBlock v:margins="rect(2,2,2,2)" v:tabSpace="42.5197"/>
			<v:textRect cx="35.4331" cy="362.917" width="70.87" height="42.5197"/>
			<rect x="0" y="341.657" width="70.8661" height="42.5197" rx="18" ry="18" class="st8"/>
			<text x="23.02" y="360.52" class="st7" v:langID="1036"><v:paragraph v:horizAlign="1"/><v:tabList/>Fichiers<v:newlineChar/><tspan
						x="18.45" dy="1.2em" class="st9">Commited</tspan></text>		</g>
		<g id="shape86-26" v:mID="86" v:groupContext="shape" v:layerMember="0" transform="translate(64.5295,-85.7893)">
			<title>Event.86</title>
			<desc>Fichiers Locaux (Unstaged)</desc>
			<v:custProps>
				<v:cp v:nameU="Cost" v:lbl="Cost" v:type="7" v:format="@" v:langID="1033"/>
				<v:cp v:nameU="Duration" v:lbl="Duration" v:type="2" v:langID="1033"/>
				<v:cp v:nameU="Resources" v:lbl="Resources" v:langID="1033"/>
			</v:custProps>
			<v:userDefs>
				<v:ud v:nameU="scaling" v:val="VT0(1):26"/>
				<v:ud v:nameU="visVersion" v:val="VT0(15):26"/>
			</v:userDefs>
			<v:textBlock v:margins="rect(2,2,2,2)" v:tabSpace="42.5197"/>
			<v:textRect cx="35.4331" cy="362.917" width="70.87" height="42.5197"/>
			<rect x="0" y="341.657" width="70.8661" height="42.5197" rx="18" ry="18" class="st10"/>
			<text x="23.02" y="355.72" class="st7" v:langID="1036"><v:paragraph v:horizAlign="1"/><v:tabList/>Fichiers<v:newlineChar/><tspan
						x="24.2" dy="1.2em" class="st9">Locaux<v:newlineChar/></tspan><tspan x="17.54" dy="1.2em" class="st9">(Unstaged)</tspan></text>		</g>
		<g id="shape87-31" v:mID="87" v:groupContext="shape" v:layerMember="0" transform="translate(192.089,-85.7893)">
			<title>Event.87</title>
			<desc>Fichiers Locaux (Unstaged)</desc>
			<v:custProps>
				<v:cp v:nameU="Cost" v:lbl="Cost" v:type="7" v:format="@" v:langID="1033"/>
				<v:cp v:nameU="Duration" v:lbl="Duration" v:type="2" v:langID="1033"/>
				<v:cp v:nameU="Resources" v:lbl="Resources" v:langID="1033"/>
			</v:custProps>
			<v:userDefs>
				<v:ud v:nameU="scaling" v:val="VT0(1):26"/>
				<v:ud v:nameU="visVersion" v:val="VT0(15):26"/>
			</v:userDefs>
			<v:textBlock v:margins="rect(2,2,2,2)" v:tabSpace="42.5197"/>
			<v:textRect cx="35.4331" cy="362.917" width="70.87" height="42.5197"/>
			<rect x="0" y="341.657" width="70.8661" height="42.5197" rx="18" ry="18" class="st10"/>
			<text x="23.02" y="355.72" class="st7" v:langID="1036"><v:paragraph v:horizAlign="1"/><v:tabList/>Fichiers<v:newlineChar/><tspan
						x="24.2" dy="1.2em" class="st9">Locaux<v:newlineChar/></tspan><tspan x="17.54" dy="1.2em" class="st9">(Unstaged)</tspan></text>		</g>
		<g id="shape88-36" v:mID="88" v:groupContext="shape" v:layerMember="0" transform="translate(319.648,-85.7893)">
			<title>Event.88</title>
			<desc>Fichiers Locaux (Unstaged)</desc>
			<v:custProps>
				<v:cp v:nameU="Cost" v:lbl="Cost" v:type="7" v:format="@" v:langID="1033"/>
				<v:cp v:nameU="Duration" v:lbl="Duration" v:type="2" v:langID="1033"/>
				<v:cp v:nameU="Resources" v:lbl="Resources" v:langID="1033"/>
			</v:custProps>
			<v:userDefs>
				<v:ud v:nameU="scaling" v:val="VT0(1):26"/>
				<v:ud v:nameU="visVersion" v:val="VT0(15):26"/>
			</v:userDefs>
			<v:textBlock v:margins="rect(2,2,2,2)" v:tabSpace="42.5197"/>
			<v:textRect cx="35.4331" cy="362.917" width="70.87" height="42.5197"/>
			<rect x="0" y="341.657" width="70.8661" height="42.5197" rx="18" ry="18" class="st10"/>
			<text x="23.02" y="355.72" class="st7" v:langID="1036"><v:paragraph v:horizAlign="1"/><v:tabList/>Fichiers<v:newlineChar/><tspan
						x="24.2" dy="1.2em" class="st9">Locaux<v:newlineChar/></tspan><tspan x="17.54" dy="1.2em" class="st9">(Unstaged)</tspan></text>		</g>
		<g id="shape89-41" v:mID="89" v:groupContext="shape" v:layerMember="1" transform="translate(107.049,-165.442)">
			<title>Dynamic connector.89</title>
			<path d="M-7.09 384.18 L-7.09 414.27" class="st11"/>
		</g>
		<g id="shape90-47" v:mID="90" v:groupContext="shape" v:layerMember="1" transform="translate(234.608,-165.442)">
			<title>Dynamic connector.90</title>
			<path d="M-7.09 384.18 L-7.09 414.27" class="st11"/>
		</g>
		<g id="shape92-52" v:mID="92" v:groupContext="shape" v:layerMember="1" transform="translate(362.167,-165.442)">
			<title>Dynamic connector.92</title>
			<path d="M-7.09 384.18 L-7.09 414.27" class="st11"/>
		</g>
		<g id="shape93-57" v:mID="93" v:groupContext="shape" v:layerMember="1" transform="translate(374.923,-209.096)">
			<title>Dynamic connector.93</title>
			<desc>git push</desc>
			<v:textBlock v:margins="rect(4,4,4,4)" v:tabSpace="42.5197"/>
			<v:textRect cx="-99.4126" cy="231.106" width="40" height="17.6036"/>
			<path d="M0 384.18 L0 239.89 L-118.39 239.89" class="st11"/>
			<rect v:rectContext="textBkgnd" x="-112.326" y="226.307" width="25.8278" height="9.59985" class="st13"/>
			<text x="-112.33" y="233.51" class="st14" v:langID="1036"><v:paragraph v:horizAlign="1"/><v:tabList/>git push</text>		</g>
		<g id="shape94-64" v:mID="94" v:groupContext="shape" v:layerMember="1" transform="translate(234.608,-209.096)">
			<title>Dynamic connector.94</title>
			<desc>git push</desc>
			<v:textBlock v:margins="rect(4,4,4,4)" v:tabSpace="42.5197"/>
			<v:textRect cx="27.496" cy="281.917" width="40" height="17.6036"/>
			<path d="M7.09 384.18 L7.09 280.67" class="st11"/>
			<rect v:rectContext="textBkgnd" x="14.5822" y="277.118" width="25.8278" height="9.59985" class="st13"/>
			<text x="14.58" y="284.32" class="st14" v:langID="1036"><v:paragraph v:horizAlign="1"/><v:tabList/>git push</text>		</g>
		<g id="shape95-71" v:mID="95" v:groupContext="shape" v:layerMember="1" transform="translate(85.7894,-209.096)">
			<title>Dynamic connector.95</title>
			<desc>git push</desc>
			<v:textBlock v:margins="rect(4,4,4,4)" v:tabSpace="42.5197"/>
			<v:textRect cx="101.069" cy="231.106" width="40" height="17.6036"/>
			<path d="M0 384.18 L0 239.89 L112.72 239.89" class="st11"/>
			<rect v:rectContext="textBkgnd" x="88.1547" y="226.307" width="25.8278" height="9.59985" class="st13"/>
			<text x="88.15" y="233.51" class="st14" v:langID="1036"><v:paragraph v:horizAlign="1"/><v:tabList/>git push</text>		</g>
		<g id="shape99-78" v:mID="99" v:groupContext="shape" v:layerMember="1" transform="translate(202.01,-333.821)">
			<title>Dynamic connector.99</title>
			<desc>git pull</desc>
			<v:textBlock v:margins="rect(4,4,4,4)" v:tabSpace="42.5197"/>
			<v:textRect cx="-69.4489" cy="504.154" width="40" height="17.6036"/>
			<path d="M0 384.18 L-87.87 384.18 L-87.87 503" class="st11"/>
			<rect v:rectContext="textBkgnd" x="-80.5326" y="499.354" width="22.1674" height="9.59985" class="st13"/>
			<text x="-80.53" y="506.55" class="st14" v:langID="1036"><v:paragraph v:horizAlign="1"/><v:tabList/>git pull</text>		</g>
		<g id="shape102-85" v:mID="102" v:groupContext="shape" v:layerMember="1" transform="translate(223.27,-320.215)">
			<title>Dynamic connector.102</title>
			<desc>git pull</desc>
			<v:textBlock v:margins="rect(4,4,4,4)" v:tabSpace="42.5197"/>
			<v:textRect cx="-28.3464" cy="476.87" width="40" height="17.6036"/>
			<path d="M-7.09 384.18 L-7.09 488.26" class="st11"/>
			<rect v:rectContext="textBkgnd" x="-39.4302" y="472.07" width="22.1674" height="9.59985" class="st15"/>
			<text x="-39.43" y="479.27" class="st14" v:langID="1036"><v:paragraph v:horizAlign="1"/><v:tabList/>git pull</text>		</g>
		<g id="shape103-92" v:mID="103" v:groupContext="shape" v:layerMember="1" transform="translate(253.033,-333.821)">
			<title>Dynamic connector.103</title>
			<desc>git pull</desc>
			<v:textBlock v:margins="rect(4,4,4,4)" v:tabSpace="42.5197"/>
			<v:textRect cx="76.5354" cy="503.055" width="40" height="17.6036"/>
			<path d="M0 384.18 L93.54 384.18 L93.54 501.86" class="st11"/>
			<rect v:rectContext="textBkgnd" x="65.4516" y="498.255" width="22.1674" height="9.59985" class="st13"/>
			<text x="65.45" y="505.46" class="st14" v:langID="1036"><v:paragraph v:horizAlign="1"/><v:tabList/>git pull</text>		</g>
		<g id="shape105-99" v:mID="105" v:groupContext="shape" v:layerMember="1" transform="translate(92.876,-128.309)">
			<title>Dynamic connector.105</title>
			<path d="M7.09 384.18 L7.09 354.08" class="st11"/>
		</g>
		<g id="shape107-104" v:mID="107" v:groupContext="shape" v:layerMember="1" transform="translate(220.435,-128.309)">
			<title>Dynamic connector.107</title>
			<path d="M7.09 384.18 L7.09 354.08" class="st11"/>
		</g>
		<g id="shape108-109" v:mID="108" v:groupContext="shape" v:layerMember="1" transform="translate(347.994,-128.309)">
			<title>Dynamic connector.108</title>
			<path d="M7.09 384.18 L7.09 354.08" class="st11"/>
		</g>
		<g id="shape112-114" v:mID="112" v:groupContext="shape" transform="translate(7.8366,-319.648)">
			<title>Internet</title>
			<v:userDefs>
				<v:ud v:nameU="msvShapeCategories" v:prompt="" v:val="VT4(Icon)"/>
				<v:ud v:nameU="visVersion" v:prompt="" v:val="VT0(15):26"/>
			</v:userDefs>
			<path d="M16.16 352.37 A16.1582 15.9037 -180 0 0 0 368.27 A16.1575 15.9031 -180 0 0 16.16 384.18 A16.1569 15.9025 -180
						 0 0 32.31 368.27 A16.1575 15.9031 -180 0 0 16.16 352.37 ZM16.66 382.16 L16.66 381.65 L16.66 375.73 L22.12
						 375.73 L21.77 376.44 A18.2605 17.9729 0 0 1 18.25 381.35 L17.71 381.83 L17.37 382.13 L16.66 382.16 ZM17.19
						 354.41 L17.5 354.68 A18.2923 18.0043 0 0 1 21.66 360.1 L22.02 360.82 L16.66 360.82 L16.66 354.38 L17.19
						 354.41 ZM28.08 360.82 L23.12 360.82 L22.99 360.52 A19.3764 19.0712 -180 0 0 19.49 355.2 L18.95 354.63 A14.167
						 13.9439 0 0 1 28.08 360.82 ZM16.66 367.79 L16.66 361.81 L22.43 361.81 L22.54 362.14 A19.0008 18.7016 0 0
						 1 23.59 367.26 L23.62 367.78 L16.66 367.78 L16.66 367.79 ZM23.63 368.78 L23.61 369.3 A18.887 18.5896 0 0
						 1 22.62 374.4 L22.5 374.73 L16.66 374.73 L16.66 368.78 L23.63 368.78 ZM19.65 381.32 A19.2696 18.9661 -180
						 0 0 23.06 376.03 L23.19 375.73 L28.08 375.73 A14.1664 13.9434 0 0 1 19.14 381.87 L19.65 381.32 ZM23.58 374.73
						 L23.78 374.09 A19.9415 19.6275 -180 0 0 24.63 369.25 L24.65 368.78 L30.27 368.78 A14.045 13.8238 0 0 1 28.67
						 374.73 L23.58 374.73 ZM24.64 367.79 L24.62 367.31 A20.0498 19.734 -180 0 0 23.73 362.46 L23.52 361.81 L28.67
						 361.81 A14.0229 13.802 0 0 1 30.27 367.79 L24.64 367.79 ZM15.65 355.1 L15.65 360.82 L10.3 360.82 L10.66
						 360.1 A18.3433 18.0545 0 0 1 14.11 355.35 L14.12 355.34 L14.12 355.35 L14.59 354.92 L15.18 354.41 L15.65
						 354.38 L15.65 355.1 ZM13.42 354.63 L12.89 355.19 A19.3219 19.0176 -180 0 0 9.37 360.52 L9.24 360.82 L4.24
						 360.82 A14.161 13.938 0 0 1 13.42 354.63 ZM8.84 361.81 L8.63 362.46 A19.9378 19.6238 -180 0 0 7.75 367.31
						 L7.72 367.79 L2.04 367.79 A14.0369 13.8159 0 0 1 3.65 361.81 L8.84 361.81 ZM2.05 368.78 L7.72 368.78 L7.74
						 369.25 A19.821 19.5089 -180 0 0 8.58 374.09 L8.78 374.73 L3.65 374.73 A14.0441 13.8229 0 0 1 2.05 368.78
						 ZM9.18 375.73 L9.31 376.03 A19.2894 18.9856 -180 0 0 12.74 381.34 L13.24 381.89 A14.1695 13.9463 0 0 1 4.24
						 375.73 L9.18 375.73 L9.18 375.73 ZM9.77 374.4 A18.98 18.6811 0 0 1 8.77 369.3 L8.74 368.78 L15.65 368.78
						 L15.65 374.73 L9.88 374.73 L9.77 374.4 ZM8.73 367.79 L8.76 367.26 A18.8497 18.5529 0 0 1 9.8 362.15 L9.92
						 361.81 L15.65 361.81 L15.65 367.79 L8.73 367.79 ZM14.99 382.13 L14.8 381.96 A18.3775 18.088 0 0 1 10.63
						 376.44 L10.28 375.73 L15.65 375.73 L15.65 382.16 L14.99 382.13 Z" class="st16"/>
		</g>
		<g id="group113-116" transform="translate(6.41928,-190.671)" v:mID="113" v:groupContext="group">
			<v:custProps>
				<v:cp v:nameU="AssetNumber" v:lbl="Asset Number" v:prompt="" v:type="0" v:format="" v:sortKey="Asset"
						v:invis="false" v:ask="false" v:langID="1033" v:cal="0"/>
				<v:cp v:nameU="SerialNumber" v:lbl="Serial Number" v:prompt="" v:type="0" v:format="" v:sortKey="Asset"
						v:invis="false" v:ask="false" v:langID="1033" v:cal="0"/>
				<v:cp v:nameU="Location" v:lbl="Location" v:prompt="" v:type="0" v:format="" v:sortKey="Asset" v:invis="false"
						v:ask="false" v:langID="1033" v:cal="0"/>
				<v:cp v:nameU="Building" v:lbl="Building" v:prompt="" v:type="0" v:format="" v:sortKey="Asset" v:invis="false"
						v:ask="false" v:langID="1033" v:cal="0"/>
				<v:cp v:nameU="Room" v:lbl="Room" v:prompt="" v:type="0" v:format="" v:sortKey="Asset" v:invis="false"
						v:ask="false" v:langID="1033" v:cal="0"/>
				<v:cp v:nameU="Manufacturer" v:lbl="Manufacturer" v:prompt="" v:type="0" v:format="" v:sortKey="Equipment"
						v:invis="false" v:ask="false" v:langID="1033" v:cal="0"/>
				<v:cp v:nameU="ProductNumber" v:lbl="Product Number" v:prompt="" v:type="0" v:format="" v:sortKey="Equipment"
						v:invis="false" v:ask="false" v:langID="1033" v:cal="0"/>
				<v:cp v:nameU="PartNumber" v:lbl="Part Number" v:prompt="" v:type="0" v:format="" v:sortKey="Equipment"
						v:invis="false" v:ask="false" v:langID="1033" v:cal="0"/>
				<v:cp v:nameU="ProductDescription" v:lbl="Product Description" v:prompt="" v:type="0" v:format=""
						v:sortKey="Equipment" v:invis="false" v:ask="false" v:langID="1033" v:cal="0"/>
				<v:cp v:nameU="NetworkName" v:lbl="Network Name" v:prompt="" v:type="0" v:format="" v:sortKey="Network"
						v:invis="false" v:ask="false" v:langID="1033" v:cal="0"/>
				<v:cp v:nameU="IPAddress" v:lbl="IP Address" v:prompt="" v:type="0" v:format="" v:sortKey="Network" v:invis="false"
						v:ask="false" v:langID="1033" v:cal="0"/>
				<v:cp v:nameU="SubnetMask" v:lbl="Subnet Mask" v:prompt="" v:type="0" v:format="" v:sortKey="Network"
						v:invis="false" v:ask="false" v:langID="1033" v:cal="0"/>
				<v:cp v:nameU="AdminInterface" v:lbl="Administrative Interface" v:prompt="" v:type="0" v:format=""
						v:sortKey="Network" v:invis="false" v:ask="false" v:langID="1033" v:cal="0"/>
				<v:cp v:nameU="NumberofPorts" v:lbl="Number of Ports" v:prompt="" v:type="0" v:format="" v:sortKey="Network"
						v:invis="false" v:ask="false" v:langID="1033" v:cal="0"/>
				<v:cp v:nameU="CommunityString" v:lbl="Community String" v:prompt="" v:type="0" v:format="" v:sortKey="Network"
						v:invis="false" v:ask="false" v:langID="1033" v:cal="0"/>
				<v:cp v:nameU="NetworkDescription" v:lbl="Network Description" v:prompt="" v:type="0" v:format=""
						v:sortKey="Network" v:invis="false" v:ask="false" v:langID="1033" v:cal="0"/>
				<v:cp v:nameU="MACAddress" v:lbl="MAC Address" v:prompt="" v:type="0" v:format="" v:sortKey="Network"
						v:invis="false" v:ask="false" v:langID="1033" v:cal="0"/>
				<v:cp v:nameU="CPU" v:lbl="CPU" v:prompt="" v:type="0" v:format="" v:sortKey="Workstation" v:invis="false"
						v:ask="false" v:langID="1033" v:cal="0"/>
				<v:cp v:nameU="Memory" v:lbl="Memory" v:prompt="" v:type="0" v:format="" v:sortKey="Workstation" v:invis="false"
						v:ask="false" v:langID="1033" v:cal="0"/>
				<v:cp v:nameU="OperatingSystem" v:lbl="Operating System" v:prompt="" v:type="0" v:format="" v:sortKey="Workstation"
						v:invis="false" v:ask="false" v:langID="1033" v:cal="0"/>
				<v:cp v:nameU="HardDriveSize" v:lbl="Hard Drive Capacity" v:prompt="" v:type="0" v:format=""
						v:sortKey="Workstation" v:invis="false" v:ask="false" v:langID="1033" v:cal="0"/>
				<v:cp v:nameU="ShapeClass" v:lbl="ShapeClass" v:prompt="" v:type="0" v:format="" v:sortKey="" v:invis="true"
						v:ask="false" v:langID="1033" v:cal="0" v:val="VT4(Equipment)"/>
				<v:cp v:nameU="ShapeType" v:lbl="ShapeType" v:prompt="" v:type="0" v:format="" v:sortKey="" v:invis="true"
						v:ask="false" v:langID="1033" v:cal="0" v:val="VT4(Computer)"/>
				<v:cp v:nameU="SubShapeType" v:lbl="SubShapeType" v:prompt="" v:type="0" v:format="" v:sortKey="" v:invis="true"
						v:ask="false" v:langID="1033" v:cal="0" v:val="VT4(Laptop)"/>
			</v:custProps>
			<v:userDefs>
				<v:ud v:nameU="visVersion" v:prompt="" v:val="VT0(15):26"/>
				<v:ud v:nameU="ShapeClass" v:prompt="" v:val="VT0(5):26"/>
				<v:ud v:nameU="SOLSH" v:prompt="" v:val="VT15({BF0433D9-CD73-4EB5-8390-8653BE590246}):41"/>
				<v:ud v:nameU="visLegendShape" v:prompt="" v:val="VT0(2):26"/>
			</v:userDefs>
			<title>Laptop.113</title>
			<g id="shape114-117" v:mID="114" v:groupContext="shape" transform="translate(0,-4.0681)">
				<title>Sheet.114</title>
				<path d="M0 384.18 L43.94 384.18 L43.94 379.57 L40.17 373.21 L3.54 373.21 L0 379.57 L0 384.18 ZM40.29 372.17 L40.29
							 352.05 C40.29 350.02 38.65 348.38 36.62 348.38 L7.22 348.38 C5.19 348.38 3.54 350.02 3.54 352.05 L3.54
							 372.17 L40.29 372.17 Z" class="st17"/>
			</g>
			<g id="shape115-119" v:mID="115" v:groupContext="shape" transform="translate(4.32294,-9.19208)">
				<title>Sheet.115</title>
				<v:userDefs>
					<v:ud v:nameU="SurroundingRegionColor" v:prompt="" v:val="VT0(1):26"/>
					<v:ud v:nameU="SurroundingRegionColor" v:prompt="" v:val="VT5(#4672c4)"/>
				</v:userDefs>
				<path d="M1.77 381 L0 384.18 L35.21 384.18 L33.44 381 L1.77 381 Z" class="st18"/>
			</g>
			<g id="shape116-122" v:mID="116" v:groupContext="shape" transform="translate(7.08403,-19.9058)">
				<title>Sheet.116</title>
				<v:userDefs>
					<v:ud v:nameU="SurroundingRegionColor" v:prompt="" v:val="VT0(1):26"/>
					<v:ud v:nameU="SurroundingRegionColor" v:prompt="" v:val="VT5(#4672c4)"/>
				</v:userDefs>
				<rect x="0" y="367.654" width="29.7694" height="16.5236" class="st19"/>
			</g>
		</g>
		<g id="group118-124" transform="translate(64.5295,-10.1583)" v:mID="118" v:groupContext="group">
			<v:custProps>
				<v:cp v:nameU="Name" v:lbl="Name" v:prompt="" v:type="0" v:format="" v:sortKey="" v:invis="false" v:ask="false"
						v:langID="1033" v:cal="0"/>
				<v:cp v:nameU="Location" v:lbl="Location" v:prompt="" v:type="0" v:format="" v:sortKey="" v:invis="false"
						v:ask="false" v:langID="1033" v:cal="0"/>
				<v:cp v:nameU="Building" v:lbl="Building" v:prompt="" v:type="0" v:format="" v:sortKey="" v:invis="false"
						v:ask="false" v:langID="1033" v:cal="0"/>
				<v:cp v:nameU="Room" v:lbl="Room" v:prompt="" v:type="0" v:format="" v:sortKey="" v:invis="false" v:ask="false"
						v:langID="1033" v:cal="0"/>
				<v:cp v:nameU="Department" v:lbl="Department" v:prompt="" v:type="0" v:format="" v:sortKey="" v:invis="false"
						v:ask="false" v:langID="1033" v:cal="0"/>
				<v:cp v:nameU="ShapeClass" v:lbl="ShapeClass" v:prompt="" v:type="0" v:format="" v:sortKey="" v:invis="true"
						v:ask="false" v:langID="1033" v:cal="0" v:val="VT4(Connectivity)"/>
				<v:cp v:nameU="ShapeType" v:lbl="ShapeType" v:prompt="" v:type="0" v:format="" v:sortKey="" v:invis="true"
						v:ask="false" v:langID="1033" v:cal="0" v:val="VT4(User)"/>
			</v:custProps>
			<v:userDefs>
				<v:ud v:nameU="visVersion" v:prompt="" v:val="VT0(15):26"/>
				<v:ud v:nameU="ShapeClass" v:prompt="" v:val="VT0(5):26"/>
				<v:ud v:nameU="SOLSH" v:prompt="" v:val="VT15({BF0433D9-CD73-4EB5-8390-8653BE590246}):41"/>
				<v:ud v:nameU="visLegendShape" v:prompt="" v:val="VT0(2):26"/>
			</v:userDefs>
			<title>User</title>
			<g id="shape119-125" v:mID="119" v:groupContext="shape" transform="translate(18.0575,5.68434E-14)">
				<title>Sheet.119</title>
				<path d="M26.29 322.12 A8.81 8.81 -180 1 0 8.67 322.12 A8.81 8.81 -180 1 0 26.29 322.12 ZM27.58 333.31 L7.17 333.31
							 C3.22 333.31 0 336.53 0 340.48 L0 365.48 L5.59 365.48 L5.59 350.93 L7.45 350.93 L7.45 384.18 L16.55
							 384.18 L16.55 369.32 C16.55 368.8 16.97 368.39 17.48 368.39 C18 368.39 18.42 368.8 18.42 369.32 L18.42
							 384.18 L28.04 384.18 L28.04 350.88 L29.91 350.88 L29.91 365.48 L34.75 365.48 L34.75 340.48 C34.75 336.53
							 31.54 333.31 27.58 333.31 Z" class="st20"/>
			</g>
		</g>
		<g id="group120-127" transform="translate(192.089,-10.1583)" v:mID="120" v:groupContext="group">
			<v:custProps>
				<v:cp v:nameU="Name" v:lbl="Name" v:prompt="" v:type="0" v:format="" v:sortKey="" v:invis="false" v:ask="false"
						v:langID="1033" v:cal="0"/>
				<v:cp v:nameU="Location" v:lbl="Location" v:prompt="" v:type="0" v:format="" v:sortKey="" v:invis="false"
						v:ask="false" v:langID="1033" v:cal="0"/>
				<v:cp v:nameU="Building" v:lbl="Building" v:prompt="" v:type="0" v:format="" v:sortKey="" v:invis="false"
						v:ask="false" v:langID="1033" v:cal="0"/>
				<v:cp v:nameU="Room" v:lbl="Room" v:prompt="" v:type="0" v:format="" v:sortKey="" v:invis="false" v:ask="false"
						v:langID="1033" v:cal="0"/>
				<v:cp v:nameU="Department" v:lbl="Department" v:prompt="" v:type="0" v:format="" v:sortKey="" v:invis="false"
						v:ask="false" v:langID="1033" v:cal="0"/>
				<v:cp v:nameU="ShapeClass" v:lbl="ShapeClass" v:prompt="" v:type="0" v:format="" v:sortKey="" v:invis="true"
						v:ask="false" v:langID="1033" v:cal="0" v:val="VT4(Connectivity)"/>
				<v:cp v:nameU="ShapeType" v:lbl="ShapeType" v:prompt="" v:type="0" v:format="" v:sortKey="" v:invis="true"
						v:ask="false" v:langID="1033" v:cal="0" v:val="VT4(User)"/>
			</v:custProps>
			<v:userDefs>
				<v:ud v:nameU="visVersion" v:prompt="" v:val="VT0(15):26"/>
				<v:ud v:nameU="ShapeClass" v:prompt="" v:val="VT0(5):26"/>
				<v:ud v:nameU="SOLSH" v:prompt="" v:val="VT15({BF0433D9-CD73-4EB5-8390-8653BE590246}):41"/>
				<v:ud v:nameU="visLegendShape" v:prompt="" v:val="VT0(2):26"/>
			</v:userDefs>
			<title>User.120</title>
			<g id="shape121-128" v:mID="121" v:groupContext="shape" transform="translate(18.0575,5.68434E-14)">
				<title>Sheet.121</title>
				<path d="M26.29 322.12 A8.81 8.81 -180 1 0 8.67 322.12 A8.81 8.81 -180 1 0 26.29 322.12 ZM27.58 333.31 L7.17 333.31
							 C3.22 333.31 0 336.53 0 340.48 L0 365.48 L5.59 365.48 L5.59 350.93 L7.45 350.93 L7.45 384.18 L16.55
							 384.18 L16.55 369.32 C16.55 368.8 16.97 368.39 17.48 368.39 C18 368.39 18.42 368.8 18.42 369.32 L18.42
							 384.18 L28.04 384.18 L28.04 350.88 L29.91 350.88 L29.91 365.48 L34.75 365.48 L34.75 340.48 C34.75 336.53
							 31.54 333.31 27.58 333.31 Z" class="st20"/>
			</g>
		</g>
		<g id="group122-130" transform="translate(319.648,-10.1583)" v:mID="122" v:groupContext="group">
			<v:custProps>
				<v:cp v:nameU="Name" v:lbl="Name" v:prompt="" v:type="0" v:format="" v:sortKey="" v:invis="false" v:ask="false"
						v:langID="1033" v:cal="0"/>
				<v:cp v:nameU="Location" v:lbl="Location" v:prompt="" v:type="0" v:format="" v:sortKey="" v:invis="false"
						v:ask="false" v:langID="1033" v:cal="0"/>
				<v:cp v:nameU="Building" v:lbl="Building" v:prompt="" v:type="0" v:format="" v:sortKey="" v:invis="false"
						v:ask="false" v:langID="1033" v:cal="0"/>
				<v:cp v:nameU="Room" v:lbl="Room" v:prompt="" v:type="0" v:format="" v:sortKey="" v:invis="false" v:ask="false"
						v:langID="1033" v:cal="0"/>
				<v:cp v:nameU="Department" v:lbl="Department" v:prompt="" v:type="0" v:format="" v:sortKey="" v:invis="false"
						v:ask="false" v:langID="1033" v:cal="0"/>
				<v:cp v:nameU="ShapeClass" v:lbl="ShapeClass" v:prompt="" v:type="0" v:format="" v:sortKey="" v:invis="true"
						v:ask="false" v:langID="1033" v:cal="0" v:val="VT4(Connectivity)"/>
				<v:cp v:nameU="ShapeType" v:lbl="ShapeType" v:prompt="" v:type="0" v:format="" v:sortKey="" v:invis="true"
						v:ask="false" v:langID="1033" v:cal="0" v:val="VT4(User)"/>
			</v:custProps>
			<v:userDefs>
				<v:ud v:nameU="visVersion" v:prompt="" v:val="VT0(15):26"/>
				<v:ud v:nameU="ShapeClass" v:prompt="" v:val="VT0(5):26"/>
				<v:ud v:nameU="SOLSH" v:prompt="" v:val="VT15({BF0433D9-CD73-4EB5-8390-8653BE590246}):41"/>
				<v:ud v:nameU="visLegendShape" v:prompt="" v:val="VT0(2):26"/>
			</v:userDefs>
			<title>User.122</title>
			<g id="shape123-131" v:mID="123" v:groupContext="shape" transform="translate(18.0575,5.68434E-14)">
				<title>Sheet.123</title>
				<path d="M26.29 322.12 A8.81 8.81 -180 1 0 8.67 322.12 A8.81 8.81 -180 1 0 26.29 322.12 ZM27.58 333.31 L7.17 333.31
							 C3.22 333.31 0 336.53 0 340.48 L0 365.48 L5.59 365.48 L5.59 350.93 L7.45 350.93 L7.45 384.18 L16.55
							 384.18 L16.55 369.32 C16.55 368.8 16.97 368.39 17.48 368.39 C18 368.39 18.42 368.8 18.42 369.32 L18.42
							 384.18 L28.04 384.18 L28.04 350.88 L29.91 350.88 L29.91 365.48 L34.75 365.48 L34.75 340.48 C34.75 336.53
							 31.54 333.31 27.58 333.31 Z" class="st20"/>
			</g>
		</g>
	</g>
</svg>
